<?xml version="1.0" standalone="no"?>
<!DOCTYPE svg PUBLIC "-//W3C//DTD SVG 20010904//EN"
 "http://www.w3.org/TR/2001/REC-SVG-20010904/DTD/svg10.dtd">
<svg version="1.0" xmlns="http://www.w3.org/2000/svg"
 width="512.000000pt" height="512.000000pt" viewBox="0 0 512.000000 512.000000"
 preserveAspectRatio="xMidYMid meet">
<metadata>
Created by potrace 1.14, written by Peter Selinger 2001-2017
</metadata>
<g transform="translate(0.000000,512.000000) scale(0.100000,-0.100000)"
fill="#000000" stroke="none">
<path d="M1756 4663 c-2 -2 -12 -5 -22 -7 -124 -24 -232 -94 -300 -196 -76
-112 -106 -229 -100 -388 l4 -103 -46 35 c-281 204 -620 166 -784 -88 -71
-110 -98 -263 -68 -378 42 -156 168 -295 348 -383 l65 -32 -65 -30 c-180 -84
-308 -226 -347 -385 -16 -66 -15 -173 3 -235 18 -66 74 -167 118 -213 119
-125 302 -176 475 -132 101 26 223 82 263 122 36 36 37 33 34 -84 -2 -134 13
-212 62 -311 57 -117 146 -198 269 -245 76 -29 221 -33 305 -7 152 46 277 174
325 332 17 57 23 89 24 125 1 19 18 0 76 -88 42 -62 82 -120 90 -130 8 -9 36
-47 63 -84 71 -97 156 -198 250 -299 l53 -57 -93 0 c-123 -1 -201 -14 -310
-56 -162 -61 -296 -168 -406 -325 -82 -117 -73 -149 68 -230 81 -47 156 -77
251 -101 94 -23 304 -21 389 4 30 9 64 19 75 21 35 8 127 56 198 103 65 43
217 193 217 213 0 6 28 -10 63 -36 370 -271 763 -445 1169 -520 145 -27 156
-26 191 4 60 54 27 134 -62 147 -25 4 -55 8 -66 11 -11 2 -55 10 -97 19 -221
43 -575 180 -749 290 l-42 26 66 33 c227 113 386 309 452 560 33 123 26 355
-14 458 -23 60 -94 63 -249 11 -143 -47 -226 -99 -338 -211 -131 -130 -197
-266 -243 -498 -1 -3 -1 -30 -1 -60 0 -30 -3 -55 -7 -55 -33 1 -343 301 -485
470 -124 147 -381 500 -364 500 2 0 25 -9 51 -20 115 -49 271 -60 381 -26 68
21 160 82 210 139 74 84 124 214 124 322 0 202 -145 401 -366 502 -30 13 -54
26 -54 28 0 2 29 17 65 33 155 73 272 192 326 332 27 68 34 203 15 275 -43
163 -161 293 -315 346 -78 27 -198 30 -288 8 -81 -20 -198 -75 -254 -120 -46
-36 -50 -36 -40 -1 12 45 5 203 -13 272 -62 242 -234 387 -471 394 -41 2 -77
1 -79 -1z m219 -1244 c165 -82 229 -288 142 -456 -22 -42 -90 -109 -134 -131
-222 -113 -483 46 -483 292 0 241 260 402 475 295z"/>
</g>
</svg>
